<?xml version="1.0" encoding="utf-8"?>
<!-- Generator: Adobe Illustrator 23.0.3, SVG Export Plug-In . SVG Version: 6.00 Build 0)  -->
<svg version="1.1" id="Layer_1" xmlns="http://www.w3.org/2000/svg" xmlns:xlink="http://www.w3.org/1999/xlink" x="0px" y="0px"
	 viewBox="0 0 149 116.3" style="enable-background:new 0 0 149 116.3;" xml:space="preserve">
<style type="text/css">
	.st0{fill:#00BFF2;}
	.st1{fill-rule:evenodd;clip-rule:evenodd;fill:#ED1846;}
</style>
<title>logo</title>
<desc>Created with Sketch.</desc>
<g>
	<path class="st0" d="M9.5,94.6L3.1,70.1h9.5c6,0,10.1,3.5,10.1,7.4c0,1.8-0.9,3.4-1.7,4.1c2.3,1.2,4.8,3.3,4.8,6.6
		c0,3.9-3.4,6.5-8,6.5H9.5z M14.2,79.7c1.3,0,1.7-0.8,1.7-1.7c0-1.5-1.1-2.7-3-2.7h-1.1l1.1,4.4H14.2z M16.7,89.3c1.5,0,2-0.9,2-1.8
		c0-1.5-1.3-2.7-3.2-2.7h-1.2l1.2,4.6H16.7z"/>
	<path class="st0" d="M33.7,70.1h7.4l4.1,15.7c1.4,5.4-2.1,9.1-8.1,9.1c-4.5,0-7.8-2-9-6.8l-4.6-18h7.4l4.4,17
		c0.3,1.2,0.6,2.2,1.8,2.2c1.2,0,1.4-0.9,1.1-2.2L33.7,70.1z"/>
	<path class="st0" d="M62.6,94.6l-5.9-8.9h-0.4l2.3,8.9h-7.5l-6.3-24.5h8.1c5.9,0,10.7,2,11.9,6.8c0.7,2.9-0.5,5.6-1.7,7l7.6,10.7
		H62.6z M55.9,80.8c1.7,0,2.2-1.5,1.7-3.1c-0.5-1.7-1.7-2.2-3-2.2h-0.9l1.4,5.3H55.9z"/>
	<path class="st0" d="M80.2,86h-1.8l-1.3-5h9l1.6,6c1.2,4.5-2.1,7.9-7.9,7.9c-4.5,0-8.7-2.1-9.8-6.6l-2.8-10.5c-1.2-4.4,2.2-8,7.7-8
		c4.9,0,9,2.7,10.1,7.3l0.4,1.6h-7.2l-0.4-1.8c-0.2-1-1.3-1.4-2-1.4c-0.7,0-1.6,0.4-1.3,1.4l2.8,11c0.3,1,1.3,1.4,2,1.4
		c0.7,0,1.6-0.4,1.3-1.4L80.2,86z"/>
	<path class="st0" d="M93,94.6l-6.3-24.5h15.8l1.5,5.6h-8.4l0.9,3.7h4.2l1.5,5.6h-4.2l1,4h8.4l1.5,5.6H93z"/>
	<path class="st0" d="M122.9,94.6l-5.9-8.9h-0.4l2.3,8.9h-7.5l-6.3-24.5h8.1c5.9,0,10.7,2,11.9,6.8c0.7,2.9-0.5,5.6-1.7,7l7.6,10.7
		H122.9z M116.1,80.8c1.7,0,2.2-1.5,1.7-3.1c-0.5-1.7-1.7-2.2-3-2.2h-0.9l1.4,5.3H116.1z"/>
	<path class="st0" d="M132.5,83.6c-3.8-2-6.3-4.4-6.3-7.8c0-3.7,3.1-6.1,7.6-6.1c4.9,0,8.8,2.8,9.9,7.2l0.4,1.4h-6.8l-0.4-1.4
		c-0.2-0.9-1.1-1.6-2.1-1.6c-0.7,0-1.2,0.4-1.2,0.9c0,0.9,1.1,1.6,2.7,2.5l4.4,2.5c3.7,2.1,6.2,4.2,6.2,7.4c0,3.9-3.6,6.1-8.1,6.1
		c-4.9,0-8.5-2.8-9.7-7.2l-0.4-1.6h6.8l0.4,1.5c0.3,1,1.2,1.7,2.2,1.7c0.9,0,1.3-0.4,1.3-1c0-0.8-0.8-1.4-2.4-2.3L132.5,83.6z"/>
</g>
<g id="Page-1">
	<g transform="translate(-680.000000, -18.000000)">
		<g id="logo" transform="translate(680.000000, 18.000000)">
			<polygon id="Fill-1" class="st1" points="56.5,50.6 54.6,56.7 52.8,50.6 49.4,50.6 52.9,60.5 52.9,66.8 56.2,66.8 56.2,60.4 
				59.8,50.6 			"/>
			<path id="Fill-2" class="st1" d="M69.9,55.3c0-1.3-0.6-2-1.6-2c-1,0-1.6,0.8-1.6,2v6.8c0,1.3,0.6,2.1,1.6,2.1
				c0.9,0,1.6-0.6,1.6-1.7V55.3z M73.1,62.4c0,2.8-2.2,4.6-4.8,4.6c-2.7,0-4.8-1.7-4.8-4.6V55c0-2.8,2.2-4.6,4.8-4.6
				c2.7,0,4.8,1.7,4.8,4.6V62.4z"/>
			<path id="Fill-4" class="st1" d="M81.6,64c1.2,0,2-0.9,2-2c0-1.1-0.8-2-2-2h-1.1v4H81.6z M81.6,57.2c1.1,0,1.8-0.8,1.8-2
				c0-1.2-0.8-1.9-1.9-1.9h-1v3.8H81.6z M77.3,66.8V50.6h4.3c2.8,0,4.8,1.9,4.8,4.5c0,1.6-0.8,2.7-1.7,3.4c1,0.7,1.9,1.9,1.9,3.6
				c0,2.6-2,4.8-5,4.8H77.3z"/>
			<path id="Fill-6" class="st1" d="M96.9,50.6h3.3v12c0,2.7-2,4.5-4.7,4.5c-2.7,0-4.7-1.8-4.7-4.5v-12h3.2v11.8
				c0,1,0.5,1.7,1.5,1.7c0.9,0,1.5-0.8,1.5-1.7V50.6z"/>
			<path id="Fill-8" class="st1" d="M53.9,104.8c1.1,0,1.9-1,1.9-2.1c0-1.2-0.8-2-1.9-2h-1v4.1H53.9z M56,114.1l-2.4-6.6h-0.7v6.6
				h-3.2V97.8h4.4c2.9,0,4.9,1.8,4.9,4.7c0,1.8-0.8,3.3-2.4,4.2l2.9,7.4H56z"/>
			<path id="Fill-10" class="st1" d="M69.9,108.3h-1.5v-2.7H73v4.2c0,2.8-2.1,4.5-4.8,4.5c-2.6,0-4.8-1.8-4.8-4.5v-7.6
				c0-2.7,2.2-4.5,4.8-4.5c2.9,0,4.7,1.8,4.7,4.7v0.6h-3.1v-0.6c0-1.2-0.7-1.8-1.6-1.8c-0.8,0-1.6,0.6-1.6,1.6v7.7
				c0,0.9,0.7,1.6,1.6,1.6c0.8,0,1.6-0.7,1.6-1.6V108.3z"/>
			<polygon id="Fill-12" class="st1" points="77.3,114.1 77.3,97.8 85.7,97.8 85.7,100.7 80.6,100.7 80.6,104.4 83.2,104.4 
				83.2,107.3 80.6,107.3 80.6,111.2 85.7,111.2 85.7,114.1 			"/>
			<path id="Fill-14" class="st1" d="M95,104.8c1.1,0,1.9-1,1.9-2.1c0-1.2-0.8-2-1.9-2h-1v4.1H95z M97.1,114.1l-2.4-6.6H94v6.6h-3.2
				V97.8h4.4c2.9,0,4.9,1.8,4.9,4.7c0,1.8-0.8,3.3-2.4,4.2l2.9,7.4H97.1z"/>
			<polygon id="Fill-16" class="st1" points="46.2,106.9 34.1,106.9 104.8,60.1 103.7,60.1 103.7,56.8 115.8,56.8 45,103.6 
				46.2,103.6 			"/>
		</g>
	</g>
</g>
</svg>
