<svg id="Layer_1" data-name="Layer 1" xmlns="http://www.w3.org/2000/svg" width="1676" height="630.73" viewBox="0 0 1676 630.73"><defs><style>.cls-1{fill:#00bff2;}.cls-2{fill:#ec1846;}</style></defs><title>yologo</title><path class="cls-1" d="M129.53,1190.32l-74.05-319H166.56c70.25,0,118.19,46,118.19,95.7,0,23.93-10.92,44.11-20.41,53,27.06,15.48,55.54,42.69,55.54,85.86,0,50.66-39.88,84.44-93.52,84.44Zm55.54-193.76c14.71,0,19.93-10.32,19.93-22,0-19.23-12.81-34.72-34.65-34.72H157.06l13.29,56.77Zm28.48,124.33c17.09,0,23.26-11.73,23.26-23.93,0-19.7-15.19-35.66-37-35.66H185.54l13.77,59.59Z" transform="translate(-55.48 -715.45)"/><path class="cls-1" d="M412.9,871.3h86.86l47.47,204.55c16.61,70.84-24.21,118.22-94.46,118.22-52.21,0-90.66-25.8-105.38-89.13L293.28,871.3h86.39l51.26,221.44c3.33,15,6.65,28.15,20.89,28.15,13.77,0,16.14-11.73,12.34-28.15Z" transform="translate(-55.48 -715.45)"/><path class="cls-1" d="M749.9,1190.32l-68.35-115.41h-5.22l27.06,115.41H616l-74-319h94.94c69.3,0,124.37,25.8,138.61,88.67,8.54,38-6.17,72.25-20.42,91l89.24,139.33Zm-78.79-179.21c19.93,0,25.63-19.24,19.93-40.35-6.17-22.52-20.41-29.09-35.12-29.09H645l16.14,69.44Z" transform="translate(-55.48 -715.45)"/><path class="cls-1" d="M954.47,1078.19H933.59l-15.19-64.74h105.37l19,77.88c14.24,58.64-24.68,102.74-92.09,102.74-52.68,0-101.1-26.74-114.87-85.38l-32.27-137C789.76,914,828.68,867.55,893.71,867.55c57,0,104.43,35.18,118.2,94.77l4.75,20.64h-84.5l-5.22-23.46c-2.85-13.14-15.19-18.77-23.73-18.77s-19,5.16-15.67,18.77l33.23,142.62c3.32,13.14,15.66,18.77,23.73,18.77s19-5.63,15.67-18.77Z" transform="translate(-55.48 -715.45)"/><path class="cls-1" d="M1104.46,1190.32l-74-319h184.65l17.08,73.19h-98.25l10.91,48.32h49.37l17.09,72.72h-49.37l11.87,51.6H1272l17.56,73.19Z" transform="translate(-55.48 -715.45)"/><path class="cls-1" d="M1452.86,1190.32l-68.35-115.41h-5.22l27.06,115.41H1319l-74-319h94.94c69.3,0,124.36,25.8,138.6,88.67,8.55,38-6.16,72.25-20.41,91l89.24,139.33Zm-78.79-179.21c19.93,0,25.63-19.24,19.93-40.35-6.17-22.52-20.41-29.09-35.12-29.09H1348l16.14,69.44Z" transform="translate(-55.48 -715.45)"/><path class="cls-1" d="M1564.87,1047.23c-44.15-26.27-74-57.71-74-100.87,0-47.85,36.07-78.81,88.29-78.81,57,0,103,36.59,115.82,93.36l4.27,18.76h-79.74l-4.28-18.76c-2.85-11.73-12.81-20.18-24.21-20.18-8.54,0-14.23,4.7-14.23,12.2,0,11.73,12.34,21.11,31.32,32.84l51.27,31.9c43.67,27.21,72.15,54.89,72.15,96.65,0,50.67-42.25,79.75-94,79.75-57.44,0-99.69-36.12-113-93.36l-4.75-20.64h78.8l4.75,19.24c3.32,13.6,14.24,21.58,26.11,21.58,10,0,15.18-5.63,15.18-13.14,0-9.85-9-18.3-28-29.56Z" transform="translate(-55.48 -715.45)"/><path class="cls-2" d="M739.6,829.53V785.76l-24.84-69h23.66L751,759.06l13.58-42.28h22.82l-25.17,68.15v44.6Z" transform="translate(-55.48 -715.45)"/><path class="cls-2" d="M880.69,798.86c0,19.4-15.26,32-33.89,32-18.79,0-33.72-12.11-33.72-32V747.29c0-19.4,15.27-31.84,33.89-31.84,18.79,0,33.72,12.1,33.72,31.84ZM858,749.44c0-9.29-4.36-14.09-11.07-14.09-6.88,0-11.24,5.3-11.24,14.09V796.7c0,9.12,4.19,14.26,11.24,14.26,6,0,11.07-4.48,11.07-12.1Z" transform="translate(-55.48 -715.45)"/><path class="cls-2" d="M910.14,829.53V716.78h30.37c19.46,0,33.38,13.26,33.38,31.33a28.89,28.89,0,0,1-11.74,23.39,29.57,29.57,0,0,1,13.08,24.87c0,18.07-14.08,33.16-35.06,33.16Zm29.69-66.66c7.39,0,12.76-5.64,12.76-13.6,0-8.29-5.37-12.93-13.26-12.93h-7.05v26.53Zm0,46.93a13.84,13.84,0,0,0,13.93-13.93,13.61,13.61,0,0,0-13.93-13.77h-7.55v27.7Z" transform="translate(-55.48 -715.45)"/><path class="cls-2" d="M1047,716.78h22.82V800c0,18.4-13.92,30.84-33,30.84-18.63,0-32.72-12.44-32.72-30.84V716.78h22.48v81.91c0,6.8,3.7,12.1,10.24,12.1s10.23-5.3,10.23-12.1Z" transform="translate(-55.48 -715.45)"/><path class="cls-2" d="M760.9,1344.85l-16.78-45.94h-4.86v45.94H716.61V1232.09h31c20.63,0,34.39,12.43,34.39,32.83,0,12.27-5.37,23-16.77,29l20.29,50.91Zm-14.76-64.51c7.88,0,13.25-6.63,13.25-14.59,0-8.12-5.37-13.93-13.25-13.93h-6.88v28.52Z" transform="translate(-55.48 -715.45)"/><path class="cls-2" d="M858,1304.72H847.47V1286H880v28.85c0,19.24-14.76,31.34-33.55,31.34-18.46,0-33.39-12.43-33.39-31.34V1262.1c0-18.4,15.27-31.34,33.89-31.34,20.14,0,33,12.77,33,32.67v4H858v-4.31c0-8.13-5-12.27-11.24-12.27a10.73,10.73,0,0,0-11.07,11.11V1315a10.93,10.93,0,0,0,11.07,11.11A11.28,11.28,0,0,0,858,1315Z" transform="translate(-55.48 -715.45)"/><path class="cls-2" d="M910.14,1344.85V1232.09h58.55v20.06H932.8v25.7h18.28v20.07H932.8v26.86h35.89v20.07Z" transform="translate(-55.48 -715.45)"/><path class="cls-2" d="M1048.3,1344.85l-16.77-45.94h-4.87v45.94H1004V1232.09h31c20.64,0,34.4,12.43,34.4,32.83,0,12.27-5.37,23-16.79,29l20.31,50.91Zm-14.76-64.51c7.89,0,13.26-6.63,13.26-14.59,0-8.12-5.37-13.93-13.26-13.93h-6.88v28.52Z" transform="translate(-55.48 -715.45)"/><polygon class="cls-2" points="636.7 579.82 563.52 579.82 1058.51 67.07 1039.3 67.07 1039.3 44.23 1112.48 44.23 617.49 556.99 636.7 556.99 636.7 579.82"/></svg>